<svg aria-roledescription="flowchart-v2" role="graphics-document document" viewbox="0 0 1471.890625 1493" class="flowchart" xlink="http://www.w3.org/1999/xlink" xmlns="http://www.w3.org/2000/svg" width="672" id="mermaid-figure-1" height="480"><style>#mermaid-figure-1{font-family:"trebuchet ms",verdana,arial,sans-serif;font-size:16px;fill:#333;}#mermaid-figure-1 .error-icon{fill:#552222;}#mermaid-figure-1 .error-text{fill:#552222;stroke:#552222;}#mermaid-figure-1 .edge-thickness-normal{stroke-width:1px;}#mermaid-figure-1 .edge-thickness-thick{stroke-width:3.5px;}#mermaid-figure-1 .edge-pattern-solid{stroke-dasharray:0;}#mermaid-figure-1 .edge-thickness-invisible{stroke-width:0;fill:none;}#mermaid-figure-1 .edge-pattern-dashed{stroke-dasharray:3;}#mermaid-figure-1 .edge-pattern-dotted{stroke-dasharray:2;}#mermaid-figure-1 .marker{fill:#333333;stroke:#333333;}#mermaid-figure-1 .marker.cross{stroke:#333333;}#mermaid-figure-1 svg{font-family:"trebuchet ms",verdana,arial,sans-serif;font-size:16px;}#mermaid-figure-1 p{margin:0;}#mermaid-figure-1 .label{font-family:"trebuchet ms",verdana,arial,sans-serif;color:#333;}#mermaid-figure-1 .cluster-label text{fill:#333;}#mermaid-figure-1 .cluster-label span{color:#333;}#mermaid-figure-1 .cluster-label span p{background-color:transparent;}#mermaid-figure-1 .label text,#mermaid-figure-1 span{fill:#333;color:#333;}#mermaid-figure-1 .node rect,#mermaid-figure-1 .node circle,#mermaid-figure-1 .node ellipse,#mermaid-figure-1 .node polygon,#mermaid-figure-1 .node path{fill:#ECECFF;stroke:#9370DB;stroke-width:1px;}#mermaid-figure-1 .rough-node .label text,#mermaid-figure-1 .node .label text{text-anchor:middle;}#mermaid-figure-1 .node .katex path{fill:#000;stroke:#000;stroke-width:1px;}#mermaid-figure-1 .node .label{text-align:center;}#mermaid-figure-1 .node.clickable{cursor:pointer;}#mermaid-figure-1 .arrowheadPath{fill:#333333;}#mermaid-figure-1 .edgePath .path{stroke:#333333;stroke-width:2.0px;}#mermaid-figure-1 .flowchart-link{stroke:#333333;fill:none;}#mermaid-figure-1 .edgeLabel{background-color:rgba(232,232,232, 0.8);text-align:center;}#mermaid-figure-1 .edgeLabel p{background-color:rgba(232,232,232, 0.8);}#mermaid-figure-1 .edgeLabel rect{opacity:0.5;background-color:rgba(232,232,232, 0.8);fill:rgba(232,232,232, 0.8);}#mermaid-figure-1 .labelBkg{background-color:rgba(232, 232, 232, 0.5);}#mermaid-figure-1 .cluster rect{fill:#ffffde;stroke:#aaaa33;stroke-width:1px;}#mermaid-figure-1 .cluster text{fill:#333;}#mermaid-figure-1 .cluster span{color:#333;}#mermaid-figure-1 div.mermaidTooltip{position:absolute;text-align:center;max-width:200px;padding:2px;font-family:"trebuchet ms",verdana,arial,sans-serif;font-size:12px;background:hsl(80, 100%, 96.2745098039%);border:1px solid #aaaa33;border-radius:2px;pointer-events:none;z-index:100;}#mermaid-figure-1 .flowchartTitleText{text-anchor:middle;font-size:18px;fill:#333;}#mermaid-figure-1 :root{--mermaid-font-family:"trebuchet ms",verdana,arial,sans-serif;}</style><g><marker orient="auto" markerheight="8" markerwidth="8" markerunits="userSpaceOnUse" refy="5" refx="5" viewbox="0 0 10 10" class="marker flowchart-v2" id="mermaid-1743198734857_flowchart-v2-pointEnd"><path style="stroke-width: 1; stroke-dasharray: 1, 0;" class="arrowMarkerPath" d="M 0 0 L 10 5 L 0 10 z"></path></marker><marker orient="auto" markerheight="8" markerwidth="8" markerunits="userSpaceOnUse" refy="5" refx="4.5" viewbox="0 0 10 10" class="marker flowchart-v2" id="mermaid-1743198734857_flowchart-v2-pointStart"><path style="stroke-width: 1; stroke-dasharray: 1, 0;" class="arrowMarkerPath" d="M 0 5 L 10 10 L 10 0 z"></path></marker><marker orient="auto" markerheight="11" markerwidth="11" markerunits="userSpaceOnUse" refy="5" refx="11" viewbox="0 0 10 10" class="marker flowchart-v2" id="mermaid-1743198734857_flowchart-v2-circleEnd"><circle style="stroke-width: 1; stroke-dasharray: 1, 0;" class="arrowMarkerPath" r="5" cy="5" cx="5"></circle></marker><marker orient="auto" markerheight="11" markerwidth="11" markerunits="userSpaceOnUse" refy="5" refx="-1" viewbox="0 0 10 10" class="marker flowchart-v2" id="mermaid-1743198734857_flowchart-v2-circleStart"><circle style="stroke-width: 1; stroke-dasharray: 1, 0;" class="arrowMarkerPath" r="5" cy="5" cx="5"></circle></marker><marker orient="auto" markerheight="11" markerwidth="11" markerunits="userSpaceOnUse" refy="5.2" refx="12" viewbox="0 0 11 11" class="marker cross flowchart-v2" id="mermaid-1743198734857_flowchart-v2-crossEnd"><path style="stroke-width: 2; stroke-dasharray: 1, 0;" class="arrowMarkerPath" d="M 1,1 l 9,9 M 10,1 l -9,9"></path></marker><marker orient="auto" markerheight="11" markerwidth="11" markerunits="userSpaceOnUse" refy="5.2" refx="-1" viewbox="0 0 11 11" class="marker cross flowchart-v2" id="mermaid-1743198734857_flowchart-v2-crossStart"><path style="stroke-width: 2; stroke-dasharray: 1, 0;" class="arrowMarkerPath" d="M 1,1 l 9,9 M 10,1 l -9,9"></path></marker><g class="root"><g class="clusters"></g><g class="edgePaths"><path marker-end="url(#mermaid-1743198734857_flowchart-v2-pointEnd)" style="" class="edge-thickness-thick edge-pattern-solid edge-thickness-normal edge-pattern-solid flowchart-link" id="L_SolveItCourse_DialogueEngineering_0" d="M150.659,988L182.089,891.167C213.52,794.333,276.381,600.667,313.748,503.833C351.116,407,362.99,407,374.197,407C385.404,407,395.944,407,401.214,407L406.484,407"></path><path marker-end="url(#mermaid-1743198734857_flowchart-v2-pointEnd)" style="" class="edge-thickness-thick edge-pattern-solid edge-thickness-normal edge-pattern-solid flowchart-link" id="L_SolveItCourse_SolveItPlatform_1" d="M199.316,988L222.637,973.167C245.958,958.333,292.6,928.667,322.15,913.833C351.701,899,364.159,899,375.951,899C387.742,899,398.867,899,404.43,899L409.992,899"></path><path marker-end="url(#mermaid-1743198734857_flowchart-v2-pointEnd)" style="" class="edge-thickness-normal edge-pattern-solid edge-thickness-normal edge-pattern-solid flowchart-link" id="L_SolveItCourse_AdventOfCode_2" d="M177.639,1066L204.573,1092.5C231.506,1119,285.374,1172,318.245,1198.5C351.116,1225,362.99,1225,374.197,1225C385.404,1225,395.944,1225,401.214,1225L406.484,1225"></path><path marker-end="url(#mermaid-1743198734857_flowchart-v2-pointEnd)" style="" class="edge-thickness-normal edge-pattern-solid edge-thickness-normal edge-pattern-solid flowchart-link" id="L_SolveItCourse_PairProgramming_3" d="M157.189,1066L187.531,1127.667C217.874,1189.333,278.558,1312.667,314.837,1374.333C351.116,1436,362.99,1436,374.197,1436C385.404,1436,395.944,1436,401.214,1436L406.484,1436"></path><path marker-end="url(#mermaid-1743198734857_flowchart-v2-pointEnd)" style="" class="edge-thickness-normal edge-pattern-solid edge-thickness-normal edge-pattern-solid flowchart-link" id="L_PlatformLogistics_DiskQuota_4" d="M205.659,112L227.923,99.167C250.187,86.333,294.714,60.667,323.096,47.833C351.478,35,363.714,35,375.283,35C386.852,35,397.754,35,403.205,35L408.656,35"></path><path marker-end="url(#mermaid-1743198734857_flowchart-v2-pointEnd)" style="" class="edge-thickness-normal edge-pattern-solid edge-thickness-normal edge-pattern-solid flowchart-link" id="L_PlatformLogistics_ResourceSharing_5" d="M268,151L279.874,151C291.747,151,315.495,151,333.305,151C351.116,151,362.99,151,374.197,151C385.404,151,395.944,151,401.214,151L406.484,151"></path><path marker-end="url(#mermaid-1743198734857_flowchart-v2-pointEnd)" style="" class="edge-thickness-normal edge-pattern-solid edge-thickness-normal edge-pattern-solid flowchart-link" id="L_PlatformLogistics_DiscordGuide_6" d="M199.316,190L222.637,204.833C245.958,219.667,292.6,249.333,321.858,264.167C351.116,279,362.99,279,374.197,279C385.404,279,395.944,279,401.214,279L406.484,279"></path><path marker-end="url(#mermaid-1743198734857_flowchart-v2-pointEnd)" style="" class="edge-thickness-thick edge-pattern-solid edge-thickness-normal edge-pattern-solid flowchart-link" id="L_SolveItPlatform_CodeInterface_7" d="M562.179,872L592.846,833.833C623.512,795.667,684.846,719.333,721.821,681.167C758.796,643,771.411,643,783.361,643C795.31,643,806.592,643,812.234,643L817.875,643"></path><path marker-end="url(#mermaid-1743198734857_flowchart-v2-pointEnd)" style="" class="edge-thickness-thick edge-pattern-solid edge-thickness-normal edge-pattern-solid flowchart-link" id="L_SolveItPlatform_NoteInterface_8" d="M583.873,872L610.924,855.167C637.975,838.333,692.078,804.667,725.437,787.833C758.796,771,771.411,771,783.361,771C795.31,771,806.592,771,812.234,771L817.875,771"></path><path marker-end="url(#mermaid-1743198734857_flowchart-v2-pointEnd)" style="" class="edge-thickness-thick edge-pattern-solid edge-thickness-normal edge-pattern-solid flowchart-link" id="L_SolveItPlatform_PromptInterface_9" d="M666.977,899L680.177,899C693.378,899,719.779,899,739.287,899C758.796,899,771.411,899,783.361,899C795.31,899,806.592,899,812.234,899L817.875,899"></path><path marker-end="url(#mermaid-1743198734857_flowchart-v2-pointEnd)" style="" class="edge-thickness-normal edge-pattern-dotted edge-thickness-normal edge-pattern-solid flowchart-link" id="L_SolveItPlatform_AImagic_10" d="M583.873,926L610.924,942.833C637.975,959.667,692.078,993.333,725.437,1010.167C758.796,1027,771.411,1027,783.361,1027C795.31,1027,806.592,1027,812.234,1027L817.875,1027"></path><path marker-end="url(#mermaid-1743198734857_flowchart-v2-pointEnd)" style="" class="edge-thickness-normal edge-pattern-solid edge-thickness-normal edge-pattern-solid flowchart-link" id="L_DialogueEngineering_PolyaMethod_11" d="M571.821,368L600.881,331.833C629.94,295.667,688.06,223.333,723.428,187.167C758.796,151,771.411,151,783.361,151C795.31,151,806.592,151,812.234,151L817.875,151"></path><path marker-end="url(#mermaid-1743198734857_flowchart-v2-pointEnd)" style="" class="edge-thickness-normal edge-pattern-solid edge-thickness-normal edge-pattern-solid flowchart-link" id="L_DialogueEngineering_AIAssistance_12" d="M665.83,368L679.222,363.833C692.613,359.667,719.396,351.333,739.096,347.167C758.796,343,771.411,343,783.361,343C795.31,343,806.592,343,812.234,343L817.875,343"></path><path marker-end="url(#mermaid-1743198734857_flowchart-v2-pointEnd)" style="" class="edge-thickness-normal edge-pattern-solid edge-thickness-normal edge-pattern-solid flowchart-link" id="L_DialogueEngineering_ExploratoryProgramming_13" d="M665.83,446L679.222,450.167C692.613,454.333,719.396,462.667,739.096,466.833C758.796,471,771.411,471,783.361,471C795.31,471,806.592,471,812.234,471L817.875,471"></path><path marker-end="url(#mermaid-1743198734857_flowchart-v2-pointEnd)" style="" class="edge-thickness-normal edge-pattern-solid edge-thickness-normal edge-pattern-solid flowchart-link" id="L_DialogueEngineering_DataInspection_14" d="M593.965,446L619.334,464.5C644.703,483,695.442,520,755.093,538.5C814.745,557,883.31,557,949.427,557C1015.544,557,1079.214,557,1116.132,556.574C1153.051,556.148,1163.219,555.297,1172.722,554.5C1182.226,553.704,1191.065,552.964,1195.485,552.594L1199.905,552.224"></path><path marker-end="url(#mermaid-1743198734857_flowchart-v2-pointEnd)" style="" class="edge-thickness-thick edge-pattern-solid edge-thickness-normal edge-pattern-solid flowchart-link" id="L_PolyaMethod_ProblemUnderstanding_15" d="M1068.27,112L1080.706,107.833C1093.141,103.667,1118.012,95.333,1135.531,91.167C1153.051,87,1163.219,87,1172.72,87C1182.221,87,1191.056,87,1195.473,87L1199.891,87"></path><path marker-end="url(#mermaid-1743198734857_flowchart-v2-pointEnd)" style="" class="edge-thickness-normal edge-pattern-solid edge-thickness-normal edge-pattern-solid flowchart-link" id="L_PolyaMethod_IncrementalDevelopment_16" d="M1068.27,190L1080.706,194.167C1093.141,198.333,1118.012,206.667,1135.531,211.978C1153.051,217.289,1163.219,219.578,1172.736,221.721C1182.254,223.863,1191.121,225.859,1195.555,226.858L1199.988,227.856"></path><path marker-end="url(#mermaid-1743198734857_flowchart-v2-pointEnd)" style="" class="edge-thickness-thick edge-pattern-solid edge-thickness-normal edge-pattern-solid flowchart-link" id="L_PairProgramming_Navigator_17" d="M670.484,1412.616L683.1,1410.347C695.716,1408.077,720.948,1403.539,740.46,1401.269C759.973,1399,773.766,1399,786.892,1399C800.018,1399,812.478,1399,818.708,1399L824.938,1399"></path><path marker-end="url(#mermaid-1743198734857_flowchart-v2-pointEnd)" style="" class="edge-thickness-thick edge-pattern-solid edge-thickness-normal edge-pattern-solid flowchart-link" id="L_PairProgramming_Driver_18" d="M670.484,1459.384L683.1,1461.653C695.716,1463.923,720.948,1468.461,767.846,1470.731C814.745,1473,883.31,1473,949.427,1473C1015.544,1473,1079.214,1473,1117.796,1471.693C1156.379,1470.386,1169.875,1467.771,1182.717,1465.284C1195.558,1462.796,1207.745,1460.436,1213.839,1459.255L1219.932,1458.075"></path><path marker-end="url(#mermaid-1743198734857_flowchart-v2-pointEnd)" style="" class="edge-thickness-normal edge-pattern-dotted edge-thickness-normal edge-pattern-solid flowchart-link" id="L_Navigator_Driver_19" d="M1074.813,1399L1086.158,1399C1097.503,1399,1120.193,1399,1138.286,1400.307C1156.379,1401.614,1169.875,1404.229,1182.717,1406.716C1195.558,1409.204,1207.745,1411.564,1213.839,1412.745L1219.932,1413.925"></path><path marker-end="url(#mermaid-1743198734857_flowchart-v2-pointEnd)" style="" class="edge-thickness-normal edge-pattern-solid edge-thickness-normal edge-pattern-solid flowchart-link" id="L_ExploratoryProgramming_IncrementalDevelopment_20" d="M1081.875,442.415L1092.043,440.179C1102.211,437.943,1122.547,433.472,1145.002,420.236C1167.457,407,1192.031,385,1216.108,363.445C1240.186,341.889,1263.767,320.779,1275.557,310.223L1287.347,299.668"></path><path marker-end="url(#mermaid-1743198734857_flowchart-v2-pointEnd)" style="" class="edge-thickness-normal edge-pattern-solid edge-thickness-normal edge-pattern-solid flowchart-link" id="L_ExploratoryProgramming_DataInspection_21" d="M1081.875,489.376L1092.043,490.814C1102.211,492.251,1122.547,495.125,1137.799,497.707C1153.051,500.289,1163.219,502.578,1172.736,504.721C1182.254,506.863,1191.121,508.859,1195.555,509.858L1199.988,510.856"></path><path marker-end="url(#mermaid-1743198734857_flowchart-v2-pointEnd)" style="" class="edge-thickness-normal edge-pattern-dotted edge-thickness-normal edge-pattern-solid flowchart-link" id="L_AIAssistance_AIDocLearning_22" d="M1081.875,343L1092.043,343C1102.211,343,1122.547,343,1137.799,344.145C1153.051,345.289,1163.219,347.578,1172.736,349.721C1182.254,351.863,1191.121,353.859,1195.555,354.858L1199.988,355.856"></path><path marker-end="url(#mermaid-1743198734857_flowchart-v2-pointEnd)" style="" class="edge-thickness-normal edge-pattern-solid edge-thickness-normal edge-pattern-solid flowchart-link" id="L_AdventOfCode_WellSpecifiedProblems_23" d="M655.086,1186L670.268,1180.833C685.451,1175.667,715.815,1165.333,737.305,1160.167C758.796,1155,771.411,1155,783.361,1155C795.31,1155,806.592,1155,812.234,1155L817.875,1155"></path><path marker-end="url(#mermaid-1743198734857_flowchart-v2-pointEnd)" style="" class="edge-thickness-normal edge-pattern-dotted edge-thickness-normal edge-pattern-solid flowchart-link" id="L_AdventOfCode_AOC2024_24" d="M670.484,1261.656L683.1,1265.213C695.716,1268.771,720.948,1275.885,739.872,1279.443C758.796,1283,771.411,1283,783.361,1283C795.31,1283,806.592,1283,812.234,1283L817.875,1283"></path></g><g class="edgeLabels"><g transform="translate(339.2421875, 407)" class="edgeLabel"><g transform="translate(-36.9140625, -12)" class="label"><foreignobject height="24" width="73.828125"><div style="display: table-cell; white-space: nowrap; line-height: 1.5; max-width: 200px; text-align: center;" class="labelBkg" xmlns="http://www.w3.org/1999/xhtml"><span class="edgeLabel"><p>introduces</p></span></div></foreignobject></g></g><g transform="translate(339.2421875, 899)" class="edgeLabel"><g transform="translate(-16.8984375, -12)" class="label"><foreignobject height="24" width="33.796875"><div style="display: table-cell; white-space: nowrap; line-height: 1.5; max-width: 200px; text-align: center;" class="labelBkg" xmlns="http://www.w3.org/1999/xhtml"><span class="edgeLabel"><p>uses</p></span></div></foreignobject></g></g><g transform="translate(339.2421875, 1225)" class="edgeLabel"><g transform="translate(-34.25, -12)" class="label"><foreignobject height="24" width="68.5"><div style="display: table-cell; white-space: nowrap; line-height: 1.5; max-width: 200px; text-align: center;" class="labelBkg" xmlns="http://www.w3.org/1999/xhtml"><span class="edgeLabel"><p>applies to</p></span></div></foreignobject></g></g><g transform="translate(339.2421875, 1436)" class="edgeLabel"><g transform="translate(-46.2421875, -12)" class="label"><foreignobject height="24" width="92.484375"><div style="display: table-cell; white-space: nowrap; line-height: 1.5; max-width: 200px; text-align: center;" class="labelBkg" xmlns="http://www.w3.org/1999/xhtml"><span class="edgeLabel"><p>recommends</p></span></div></foreignobject></g></g><g transform="translate(339.2421875, 35)" class="edgeLabel"><g transform="translate(-43.5859375, -12)" class="label"><foreignobject height="24" width="87.171875"><div style="display: table-cell; white-space: nowrap; line-height: 1.5; max-width: 200px; text-align: center;" class="labelBkg" xmlns="http://www.w3.org/1999/xhtml"><span class="edgeLabel"><p>warns about</p></span></div></foreignobject></g></g><g transform="translate(339.2421875, 151)" class="edgeLabel"><g transform="translate(-42.6875, -12)" class="label"><foreignobject height="24" width="85.375"><div style="display: table-cell; white-space: nowrap; line-height: 1.5; max-width: 200px; text-align: center;" class="labelBkg" xmlns="http://www.w3.org/1999/xhtml"><span class="edgeLabel"><p>emphasizes</p></span></div></foreignobject></g></g><g transform="translate(339.2421875, 279)" class="edgeLabel"><g transform="translate(-29.3515625, -12)" class="label"><foreignobject height="24" width="58.703125"><div style="display: table-cell; white-space: nowrap; line-height: 1.5; max-width: 200px; text-align: center;" class="labelBkg" xmlns="http://www.w3.org/1999/xhtml"><span class="edgeLabel"><p>includes</p></span></div></foreignobject></g></g><g transform="translate(746.1796875, 643)" class="edgeLabel"><g transform="translate(-30.2421875, -12)" class="label"><foreignobject height="24" width="60.484375"><div style="display: table-cell; white-space: nowrap; line-height: 1.5; max-width: 200px; text-align: center;" class="labelBkg" xmlns="http://www.w3.org/1999/xhtml"><span class="edgeLabel"><p>provides</p></span></div></foreignobject></g></g><g transform="translate(746.1796875, 771)" class="edgeLabel"><g transform="translate(-30.2421875, -12)" class="label"><foreignobject height="24" width="60.484375"><div style="display: table-cell; white-space: nowrap; line-height: 1.5; max-width: 200px; text-align: center;" class="labelBkg" xmlns="http://www.w3.org/1999/xhtml"><span class="edgeLabel"><p>provides</p></span></div></foreignobject></g></g><g transform="translate(746.1796875, 899)" class="edgeLabel"><g transform="translate(-30.2421875, -12)" class="label"><foreignobject height="24" width="60.484375"><div style="display: table-cell; white-space: nowrap; line-height: 1.5; max-width: 200px; text-align: center;" class="labelBkg" xmlns="http://www.w3.org/1999/xhtml"><span class="edgeLabel"><p>provides</p></span></div></foreignobject></g></g><g transform="translate(746.1796875, 1027)" class="edgeLabel"><g transform="translate(-44.4609375, -12)" class="label"><foreignobject height="24" width="88.921875"><div style="display: table-cell; white-space: nowrap; line-height: 1.5; max-width: 200px; text-align: center;" class="labelBkg" xmlns="http://www.w3.org/1999/xhtml"><span class="edgeLabel"><p>derived from</p></span></div></foreignobject></g></g><g transform="translate(746.1796875, 151)" class="edgeLabel"><g transform="translate(-40.90625, -12)" class="label"><foreignobject height="24" width="81.8125"><div style="display: table-cell; white-space: nowrap; line-height: 1.5; max-width: 200px; text-align: center;" class="labelBkg" xmlns="http://www.w3.org/1999/xhtml"><span class="edgeLabel"><p>implements</p></span></div></foreignobject></g></g><g transform="translate(746.1796875, 343)" class="edgeLabel"><g transform="translate(-30.2421875, -12)" class="label"><foreignobject height="24" width="60.484375"><div style="display: table-cell; white-space: nowrap; line-height: 1.5; max-width: 200px; text-align: center;" class="labelBkg" xmlns="http://www.w3.org/1999/xhtml"><span class="edgeLabel"><p>relies on</p></span></div></foreignobject></g></g><g transform="translate(746.1796875, 471)" class="edgeLabel"><g transform="translate(-33.3515625, -12)" class="label"><foreignobject height="24" width="66.703125"><div style="display: table-cell; white-space: nowrap; line-height: 1.5; max-width: 200px; text-align: center;" class="labelBkg" xmlns="http://www.w3.org/1999/xhtml"><span class="edgeLabel"><p>promotes</p></span></div></foreignobject></g></g><g transform="translate(951.875, 557)" class="edgeLabel"><g transform="translate(-41.8125, -12)" class="label"><foreignobject height="24" width="83.625"><div style="display: table-cell; white-space: nowrap; line-height: 1.5; max-width: 200px; text-align: center;" class="labelBkg" xmlns="http://www.w3.org/1999/xhtml"><span class="edgeLabel"><p>encourages</p></span></div></foreignobject></g></g><g transform="translate(1142.8828125, 87)" class="edgeLabel"><g transform="translate(-36.0078125, -12)" class="label"><foreignobject height="24" width="72.015625"><div style="display: table-cell; white-space: nowrap; line-height: 1.5; max-width: 200px; text-align: center;" class="labelBkg" xmlns="http://www.w3.org/1999/xhtml"><span class="edgeLabel"><p>starts with</p></span></div></foreignobject></g></g><g transform="translate(1142.8828125, 215)" class="edgeLabel"><g transform="translate(-30.6875, -12)" class="label"><foreignobject height="24" width="61.375"><div style="display: table-cell; white-space: nowrap; line-height: 1.5; max-width: 200px; text-align: center;" class="labelBkg" xmlns="http://www.w3.org/1999/xhtml"><span class="edgeLabel"><p>supports</p></span></div></foreignobject></g></g><g transform="translate(746.1796875, 1399)" class="edgeLabel"><g transform="translate(-25.796875, -12)" class="label"><foreignobject height="24" width="51.59375"><div style="display: table-cell; white-space: nowrap; line-height: 1.5; max-width: 200px; text-align: center;" class="labelBkg" xmlns="http://www.w3.org/1999/xhtml"><span class="edgeLabel"><p>defines</p></span></div></foreignobject></g></g><g transform="translate(951.875, 1473)" class="edgeLabel"><g transform="translate(-25.796875, -12)" class="label"><foreignobject height="24" width="51.59375"><div style="display: table-cell; white-space: nowrap; line-height: 1.5; max-width: 200px; text-align: center;" class="labelBkg" xmlns="http://www.w3.org/1999/xhtml"><span class="edgeLabel"><p>defines</p></span></div></foreignobject></g></g><g transform="translate(1142.8828125, 1399)" class="edgeLabel"><g transform="translate(-23.578125, -12)" class="label"><foreignobject height="24" width="47.15625"><div style="display: table-cell; white-space: nowrap; line-height: 1.5; max-width: 200px; text-align: center;" class="labelBkg" xmlns="http://www.w3.org/1999/xhtml"><span class="edgeLabel"><p>guides</p></span></div></foreignobject></g></g><g transform="translate(1142.8828125, 429)" class="edgeLabel"><g transform="translate(-24.453125, -12)" class="label"><foreignobject height="24" width="48.90625"><div style="display: table-cell; white-space: nowrap; line-height: 1.5; max-width: 200px; text-align: center;" class="labelBkg" xmlns="http://www.w3.org/1999/xhtml"><span class="edgeLabel"><p>utilizes</p></span></div></foreignobject></g></g><g transform="translate(1142.8828125, 498)" class="edgeLabel"><g transform="translate(-28.90625, -12)" class="label"><foreignobject height="24" width="57.8125"><div style="display: table-cell; white-space: nowrap; line-height: 1.5; max-width: 200px; text-align: center;" class="labelBkg" xmlns="http://www.w3.org/1999/xhtml"><span class="edgeLabel"><p>requires</p></span></div></foreignobject></g></g><g transform="translate(1142.8828125, 343)" class="edgeLabel"><g transform="translate(-28.0234375, -12)" class="label"><foreignobject height="24" width="56.046875"><div style="display: table-cell; white-space: nowrap; line-height: 1.5; max-width: 200px; text-align: center;" class="labelBkg" xmlns="http://www.w3.org/1999/xhtml"><span class="edgeLabel"><p>leads to</p></span></div></foreignobject></g></g><g transform="translate(746.1796875, 1155)" class="edgeLabel"><g transform="translate(-30.2421875, -12)" class="label"><foreignobject height="24" width="60.484375"><div style="display: table-cell; white-space: nowrap; line-height: 1.5; max-width: 200px; text-align: center;" class="labelBkg" xmlns="http://www.w3.org/1999/xhtml"><span class="edgeLabel"><p>provides</p></span></div></foreignobject></g></g><g transform="translate(746.1796875, 1283)" class="edgeLabel"><g transform="translate(-50.6953125, -12)" class="label"><foreignobject height="24" width="101.390625"><div style="display: table-cell; white-space: nowrap; line-height: 1.5; max-width: 200px; text-align: center;" class="labelBkg" xmlns="http://www.w3.org/1999/xhtml"><span class="edgeLabel"><p>continues with</p></span></div></foreignobject></g></g></g><g class="nodes"><g transform="translate(138, 1027)" id="flowchart-SolveItCourse-0" class="node default"><rect height="78" width="260" y="-39" x="-130" data-et="node" data-id="abc" style="" class="basic label-container"></rect><g transform="translate(-100, -24)" style="" class="label"><rect></rect><foreignobject height="48" width="200"><div style="display: table; white-space: break-spaces; line-height: 1.5; max-width: 200px; text-align: center; width: 200px;" xmlns="http://www.w3.org/1999/xhtml"><span class="nodeLabel"><p>Solve It With Code Course (line 0001)</p></span></div></foreignobject></g></g><g transform="translate(138, 151)" id="flowchart-PlatformLogistics-1" class="node default"><rect height="78" width="260" y="-39" x="-130" data-et="node" data-id="abc" style="" class="basic label-container"></rect><g transform="translate(-100, -24)" style="" class="label"><rect></rect><foreignobject height="48" width="200"><div style="display: table; white-space: break-spaces; line-height: 1.5; max-width: 200px; text-align: center; width: 200px;" xmlns="http://www.w3.org/1999/xhtml"><span class="nodeLabel"><p>Platform Logistics (line 0003)</p></span></div></foreignobject></g></g><g transform="translate(540.484375, 35)" id="flowchart-DiskQuota-2" class="node default"><rect height="54" width="255.65625" y="-27" x="-127.828125" data-et="node" data-id="abc" style="" class="basic label-container"></rect><g transform="translate(-97.828125, -12)" style="" class="label"><rect></rect><foreignobject height="24" width="195.65625"><div style="display: table-cell; white-space: nowrap; line-height: 1.5; max-width: 200px; text-align: center;" xmlns="http://www.w3.org/1999/xhtml"><span class="nodeLabel"><p>2GB Disk Quota (line 0004)</p></span></div></foreignobject></g></g><g transform="translate(540.484375, 151)" id="flowchart-ResourceSharing-3" class="node default"><rect height="78" width="260" y="-39" x="-130" data-et="node" data-id="abc" style="" class="basic label-container"></rect><g transform="translate(-100, -24)" style="" class="label"><rect></rect><foreignobject height="48" width="200"><div style="display: table; white-space: break-spaces; line-height: 1.5; max-width: 200px; text-align: center; width: 200px;" xmlns="http://www.w3.org/1999/xhtml"><span class="nodeLabel"><p>Shared Resource Usage (line 0018)</p></span></div></foreignobject></g></g><g transform="translate(540.484375, 279)" id="flowchart-DiscordGuide-4" class="node default"><rect height="78" width="260" y="-39" x="-130" data-et="node" data-id="abc" style="" class="basic label-container"></rect><g transform="translate(-100, -24)" style="" class="label"><rect></rect><foreignobject height="48" width="200"><div style="display: table; white-space: break-spaces; line-height: 1.5; max-width: 200px; text-align: center; width: 200px;" xmlns="http://www.w3.org/1999/xhtml"><span class="nodeLabel"><p>Discord Usage Guide (line 0030)</p></span></div></foreignobject></g></g><g transform="translate(540.484375, 407)" id="flowchart-DialogueEngineering-5" class="node default"><rect height="78" width="260" y="-39" x="-130" data-et="node" data-id="abc" style="" class="basic label-container"></rect><g transform="translate(-100, -24)" style="" class="label"><rect></rect><foreignobject height="48" width="200"><div style="display: table; white-space: break-spaces; line-height: 1.5; max-width: 200px; text-align: center; width: 200px;" xmlns="http://www.w3.org/1999/xhtml"><span class="nodeLabel"><p>Dialogue Engineering Approach (line 0276)</p></span></div></foreignobject></g></g><g transform="translate(951.875, 343)" id="flowchart-AIAssistance-6" class="node default"><rect height="78" width="260" y="-39" x="-130" data-et="node" data-id="abc" style="" class="basic label-container"></rect><g transform="translate(-100, -24)" style="" class="label"><rect></rect><foreignobject height="48" width="200"><div style="display: table; white-space: break-spaces; line-height: 1.5; max-width: 200px; text-align: center; width: 200px;" xmlns="http://www.w3.org/1999/xhtml"><span class="nodeLabel"><p>AI-Assisted Problem Solving (line 0359)</p></span></div></foreignobject></g></g><g transform="translate(540.484375, 899)" id="flowchart-SolveItPlatform-7" class="node default"><rect height="54" width="252.984375" y="-27" x="-126.4921875" data-et="node" data-id="abc" style="" class="basic label-container"></rect><g transform="translate(-96.4921875, -12)" style="" class="label"><rect></rect><foreignobject height="24" width="192.984375"><div style="display: table-cell; white-space: nowrap; line-height: 1.5; max-width: 200px; text-align: center;" xmlns="http://www.w3.org/1999/xhtml"><span class="nodeLabel"><p>SolveIt Platform (line 0164)</p></span></div></foreignobject></g></g><g transform="translate(951.875, 643)" id="flowchart-CodeInterface-8" class="node default"><rect height="78" width="260" y="-39" x="-130" data-et="node" data-id="abc" style="" class="basic label-container"></rect><g transform="translate(-100, -24)" style="" class="label"><rect></rect><foreignobject height="48" width="200"><div style="display: table; white-space: break-spaces; line-height: 1.5; max-width: 200px; text-align: center; width: 200px;" xmlns="http://www.w3.org/1999/xhtml"><span class="nodeLabel"><p>Code Message Interface (line 0180)</p></span></div></foreignobject></g></g><g transform="translate(951.875, 771)" id="flowchart-NoteInterface-9" class="node default"><rect height="78" width="260" y="-39" x="-130" data-et="node" data-id="abc" style="" class="basic label-container"></rect><g transform="translate(-100, -24)" style="" class="label"><rect></rect><foreignobject height="48" width="200"><div style="display: table; white-space: break-spaces; line-height: 1.5; max-width: 200px; text-align: center; width: 200px;" xmlns="http://www.w3.org/1999/xhtml"><span class="nodeLabel"><p>Note Message Interface (line 0183)</p></span></div></foreignobject></g></g><g transform="translate(951.875, 899)" id="flowchart-PromptInterface-10" class="node default"><rect height="78" width="260" y="-39" x="-130" data-et="node" data-id="abc" style="" class="basic label-container"></rect><g transform="translate(-100, -24)" style="" class="label"><rect></rect><foreignobject height="48" width="200"><div style="display: table; white-space: break-spaces; line-height: 1.5; max-width: 200px; text-align: center; width: 200px;" xmlns="http://www.w3.org/1999/xhtml"><span class="nodeLabel"><p>AI Prompt Interface (line 0202)</p></span></div></foreignobject></g></g><g transform="translate(540.484375, 1225)" id="flowchart-AdventOfCode-11" class="node default"><rect height="78" width="260" y="-39" x="-130" data-et="node" data-id="abc" style="" class="basic label-container"></rect><g transform="translate(-100, -24)" style="" class="label"><rect></rect><foreignobject height="48" width="200"><div style="display: table; white-space: break-spaces; line-height: 1.5; max-width: 200px; text-align: center; width: 200px;" xmlns="http://www.w3.org/1999/xhtml"><span class="nodeLabel"><p>Advent of Code Problems (line 0284)</p></span></div></foreignobject></g></g><g transform="translate(951.875, 151)" id="flowchart-PolyaMethod-12" class="node default"><rect height="78" width="260" y="-39" x="-130" data-et="node" data-id="abc" style="" class="basic label-container"></rect><g transform="translate(-100, -24)" style="" class="label"><rect></rect><foreignobject height="48" width="200"><div style="display: table; white-space: break-spaces; line-height: 1.5; max-width: 200px; text-align: center; width: 200px;" xmlns="http://www.w3.org/1999/xhtml"><span class="nodeLabel"><p>Pólya Problem-Solving Method (line 0351)</p></span></div></foreignobject></g></g><g transform="translate(1333.890625, 87)" id="flowchart-ProblemUnderstanding-13" class="node default"><rect height="78" width="260" y="-39" x="-130" data-et="node" data-id="abc" style="" class="basic label-container"></rect><g transform="translate(-100, -24)" style="" class="label"><rect></rect><foreignobject height="48" width="200"><div style="display: table; white-space: break-spaces; line-height: 1.5; max-width: 200px; text-align: center; width: 200px;" xmlns="http://www.w3.org/1999/xhtml"><span class="nodeLabel"><p>Understanding the Problem (line 0518)</p></span></div></foreignobject></g></g><g transform="translate(951.875, 471)" id="flowchart-ExploratoryProgramming-14" class="node default"><rect height="78" width="260" y="-39" x="-130" data-et="node" data-id="abc" style="" class="basic label-container"></rect><g transform="translate(-100, -24)" style="" class="label"><rect></rect><foreignobject height="48" width="200"><div style="display: table; white-space: break-spaces; line-height: 1.5; max-width: 200px; text-align: center; width: 200px;" xmlns="http://www.w3.org/1999/xhtml"><span class="nodeLabel"><p>Exploratory Programming (line 0740)</p></span></div></foreignobject></g></g><g transform="translate(1333.890625, 258)" id="flowchart-IncrementalDevelopment-15" class="node default"><rect height="78" width="260" y="-39" x="-130" data-et="node" data-id="abc" style="" class="basic label-container"></rect><g transform="translate(-100, -24)" style="" class="label"><rect></rect><foreignobject height="48" width="200"><div style="display: table; white-space: break-spaces; line-height: 1.5; max-width: 200px; text-align: center; width: 200px;" xmlns="http://www.w3.org/1999/xhtml"><span class="nodeLabel"><p>Incremental Development (line 0847)</p></span></div></foreignobject></g></g><g transform="translate(1333.890625, 541)" id="flowchart-DataInspection-16" class="node default"><rect height="78" width="260" y="-39" x="-130" data-et="node" data-id="abc" style="" class="basic label-container"></rect><g transform="translate(-100, -24)" style="" class="label"><rect></rect><foreignobject height="48" width="200"><div style="display: table; white-space: break-spaces; line-height: 1.5; max-width: 200px; text-align: center; width: 200px;" xmlns="http://www.w3.org/1999/xhtml"><span class="nodeLabel"><p>Data Inspection at Each Step (line 0690)</p></span></div></foreignobject></g></g><g transform="translate(540.484375, 1436)" id="flowchart-PairProgramming-17" class="node default"><rect height="78" width="260" y="-39" x="-130" data-et="node" data-id="abc" style="" class="basic label-container"></rect><g transform="translate(-100, -24)" style="" class="label"><rect></rect><foreignobject height="48" width="200"><div style="display: table; white-space: break-spaces; line-height: 1.5; max-width: 200px; text-align: center; width: 200px;" xmlns="http://www.w3.org/1999/xhtml"><span class="nodeLabel"><p>Pair Programming (line 0572)</p></span></div></foreignobject></g></g><g transform="translate(951.875, 1399)" id="flowchart-Navigator-18" class="node default"><rect height="54" width="245.875" y="-27" x="-122.9375" data-et="node" data-id="abc" style="" class="basic label-container"></rect><g transform="translate(-92.9375, -12)" style="" class="label"><rect></rect><foreignobject height="24" width="185.875"><div style="display: table-cell; white-space: nowrap; line-height: 1.5; max-width: 200px; text-align: center;" xmlns="http://www.w3.org/1999/xhtml"><span class="nodeLabel"><p>Navigator Role (line 0578)</p></span></div></foreignobject></g></g><g transform="translate(1333.890625, 1436)" id="flowchart-Driver-19" class="node default"><rect height="54" width="220.0625" y="-27" x="-110.03125" data-et="node" data-id="abc" style="" class="basic label-container"></rect><g transform="translate(-80.03125, -12)" style="" class="label"><rect></rect><foreignobject height="24" width="160.0625"><div style="display: table-cell; white-space: nowrap; line-height: 1.5; max-width: 200px; text-align: center;" xmlns="http://www.w3.org/1999/xhtml"><span class="nodeLabel"><p>Driver Role (line 0574)</p></span></div></foreignobject></g></g><g transform="translate(1333.890625, 386)" id="flowchart-AIDocLearning-20" class="node default"><rect height="78" width="260" y="-39" x="-130" data-et="node" data-id="abc" style="" class="basic label-container"></rect><g transform="translate(-100, -24)" style="" class="label"><rect></rect><foreignobject height="48" width="200"><div style="display: table; white-space: break-spaces; line-height: 1.5; max-width: 200px; text-align: center; width: 200px;" xmlns="http://www.w3.org/1999/xhtml"><span class="nodeLabel"><p>Learning from AI Suggestions (line 1014)</p></span></div></foreignobject></g></g><g transform="translate(951.875, 1027)" id="flowchart-AImagic-42" class="node default"><rect height="78" width="260" y="-39" x="-130" data-et="node" data-id="abc" style="" class="basic label-container"></rect><g transform="translate(-100, -24)" style="" class="label"><rect></rect><foreignobject height="48" width="200"><div style="display: table; white-space: break-spaces; line-height: 1.5; max-width: 200px; text-align: center; width: 200px;" xmlns="http://www.w3.org/1999/xhtml"><span class="nodeLabel"><p>AI Magic Internal Tool (line 0425)</p></span></div></foreignobject></g></g><g transform="translate(951.875, 1155)" id="flowchart-WellSpecifiedProblems-68" class="node default"><rect height="78" width="260" y="-39" x="-130" data-et="node" data-id="abc" style="" class="basic label-container"></rect><g transform="translate(-100, -24)" style="" class="label"><rect></rect><foreignobject height="48" width="200"><div style="display: table; white-space: break-spaces; line-height: 1.5; max-width: 200px; text-align: center; width: 200px;" xmlns="http://www.w3.org/1999/xhtml"><span class="nodeLabel"><p>Well-Specified Problems (line 0294)</p></span></div></foreignobject></g></g><g transform="translate(951.875, 1283)" id="flowchart-AOC2024-70" class="node default"><rect height="78" width="260" y="-39" x="-130" data-et="node" data-id="abc" style="" class="basic label-container"></rect><g transform="translate(-100, -24)" style="" class="label"><rect></rect><foreignobject height="48" width="200"><div style="display: table; white-space: break-spaces; line-height: 1.5; max-width: 200px; text-align: center; width: 200px;" xmlns="http://www.w3.org/1999/xhtml"><span class="nodeLabel"><p>Advent of Code 2024 (line 0404)</p></span></div></foreignobject></g></g></g></g></g></svg>