<?xml version="1.0" encoding="UTF-8" standalone="no"?>
<!DOCTYPE svg PUBLIC "-//W3C//DTD SVG 1.1//EN"
 "http://www.w3.org/Graphics/SVG/1.1/DTD/svg11.dtd">
<!-- Generated by graphviz version 2.43.0 (0)
 -->
<!-- Title: G Pages: 1 -->
<svg width="661pt" height="78pt"
 viewBox="0.00 0.00 660.87 78.00" xmlns="http://www.w3.org/2000/svg" xmlns:xlink="http://www.w3.org/1999/xlink">
<g id="graph0" class="graph" transform="scale(1 1) rotate(0) translate(4 74)">
<title>G</title>
<polygon fill="white" stroke="transparent" points="-4,4 -4,-74 656.87,-74 656.87,4 -4,4"/>
<!-- init -->
<g id="node1" class="node">
<title>init</title>
<ellipse fill="none" stroke="black" cx="27" cy="-18" rx="27" ry="18"/>
<text text-anchor="middle" x="27" y="-14.3" font-family="Times,serif" font-size="14.00">init</text>
</g>
<!-- predict -->
<g id="node2" class="node">
<title>predict</title>
<ellipse fill="none" stroke="black" cx="135.2" cy="-18" rx="44.39" ry="18"/>
<text text-anchor="middle" x="135.2" y="-14.3" font-family="Times,serif" font-size="14.00">predict</text>
</g>
<!-- init&#45;&gt;predict -->
<g id="edge1" class="edge">
<title>init&#45;&gt;predict</title>
<path fill="none" stroke="black" d="M54.25,-18C62.37,-18 71.63,-18 80.89,-18"/>
<polygon fill="black" stroke="black" points="80.89,-21.5 90.89,-18 80.89,-14.5 80.89,-21.5"/>
</g>
<!-- loss -->
<g id="node3" class="node">
<title>loss</title>
<ellipse fill="none" stroke="black" cx="244.99" cy="-52" rx="28.7" ry="18"/>
<text text-anchor="middle" x="244.99" y="-48.3" font-family="Times,serif" font-size="14.00">loss</text>
</g>
<!-- predict&#45;&gt;loss -->
<g id="edge2" class="edge">
<title>predict&#45;&gt;loss</title>
<path fill="none" stroke="black" d="M170.6,-28.85C183.05,-32.78 197.09,-37.21 209.54,-41.14"/>
<polygon fill="black" stroke="black" points="208.53,-44.49 219.12,-44.16 210.64,-37.81 208.53,-44.49"/>
</g>
<!-- gradient -->
<g id="node4" class="node">
<title>gradient</title>
<ellipse fill="none" stroke="black" cx="406.63" cy="-52" rx="50.09" ry="18"/>
<text text-anchor="middle" x="406.63" y="-48.3" font-family="Times,serif" font-size="14.00">gradient</text>
</g>
<!-- loss&#45;&gt;gradient -->
<g id="edge3" class="edge">
<title>loss&#45;&gt;gradient</title>
<path fill="none" stroke="black" d="M273.8,-52C293.82,-52 321.57,-52 346.45,-52"/>
<polygon fill="black" stroke="black" points="346.55,-55.5 356.55,-52 346.55,-48.5 346.55,-55.5"/>
</g>
<!-- step -->
<g id="node5" class="node">
<title>step</title>
<ellipse fill="none" stroke="black" cx="524.23" cy="-18" rx="30.59" ry="18"/>
<text text-anchor="middle" x="524.23" y="-14.3" font-family="Times,serif" font-size="14.00">step</text>
</g>
<!-- gradient&#45;&gt;step -->
<g id="edge4" class="edge">
<title>gradient&#45;&gt;step</title>
<path fill="none" stroke="black" d="M445.8,-40.77C459.01,-36.89 473.76,-32.55 486.82,-28.71"/>
<polygon fill="black" stroke="black" points="487.82,-32.06 496.43,-25.88 485.85,-25.35 487.82,-32.06"/>
</g>
<!-- step&#45;&gt;predict -->
<g id="edge6" class="edge">
<title>step&#45;&gt;predict</title>
<path fill="none" stroke="black" d="M493.68,-18C428.65,-18 272.39,-18 189.67,-18"/>
<polygon fill="black" stroke="black" points="189.47,-14.5 179.47,-18 189.47,-21.5 189.47,-14.5"/>
<text text-anchor="middle" x="315.09" y="-21.8" font-family="Times,serif" font-size="14.00">repeat</text>
</g>
<!-- stop -->
<g id="node6" class="node">
<title>stop</title>
<ellipse fill="none" stroke="black" cx="622.32" cy="-18" rx="30.59" ry="18"/>
<text text-anchor="middle" x="622.32" y="-14.3" font-family="Times,serif" font-size="14.00">stop</text>
</g>
<!-- step&#45;&gt;stop -->
<g id="edge5" class="edge">
<title>step&#45;&gt;stop</title>
<path fill="none" stroke="black" d="M554.84,-18C563.24,-18 572.53,-18 581.44,-18"/>
<polygon fill="black" stroke="black" points="581.64,-21.5 591.64,-18 581.64,-14.5 581.64,-21.5"/>
</g>
</g>
</svg>
