<?xml version="1.0" encoding="UTF-8" standalone="no"?>
<!DOCTYPE svg PUBLIC "-//W3C//DTD SVG 1.1//EN"
 "http://www.w3.org/Graphics/SVG/1.1/DTD/svg11.dtd">
<!-- Generated by graphviz version 2.43.0 (0)
 -->
<!-- Title: Tree Pages: 1 -->
<svg width="720pt" height="436pt"
 viewBox="0.00 0.00 720.00 435.77" xmlns="http://www.w3.org/2000/svg" xmlns:xlink="http://www.w3.org/1999/xlink">
<g id="graph0" class="graph" transform="scale(1 1) rotate(0) translate(4 432.98)">
<title>Tree</title>
<polygon fill="white" stroke="transparent" points="-4,4 -4,-432.98 718,-432.98 718,4 -4,4"/>
<!-- 0 -->
<g id="node1" class="node">
<title>0</title>
<path fill="#eda775" stroke="black" d="M614,-424C614,-424 465,-424 465,-424 459,-424 453,-418 453,-412 453,-412 453,-368 453,-368 453,-362 459,-356 465,-356 465,-356 614,-356 614,-356 620,-356 626,-362 626,-368 626,-368 626,-412 626,-412 626,-418 620,-424 614,-424"/>
<text text-anchor="start" x="461" y="-408.8" font-family="Helvetica,sans-Serif" font-size="14.00">Coupler_System ≤ 0.5</text>
<text text-anchor="start" x="465" y="-393.8" font-family="Helvetica,sans-Serif" font-size="14.00">squared_error = 0.48</text>
<text text-anchor="start" x="473" y="-378.8" font-family="Helvetica,sans-Serif" font-size="14.00">samples = 404710</text>
<text text-anchor="start" x="494" y="-363.8" font-family="Helvetica,sans-Serif" font-size="14.00">value = 10.1</text>
</g>
<!-- 1 -->
<g id="node2" class="node">
<title>1</title>
<path fill="#eb9d64" stroke="black" d="M427,-304C427,-304 286,-304 286,-304 280,-304 274,-298 274,-292 274,-292 274,-248 274,-248 274,-242 280,-236 286,-236 286,-236 427,-236 427,-236 433,-236 439,-242 439,-248 439,-248 439,-292 439,-292 439,-298 433,-304 427,-304"/>
<text text-anchor="start" x="287.5" y="-288.8" font-family="Helvetica,sans-Serif" font-size="14.00">YearMade ≤ 1991.5</text>
<text text-anchor="start" x="282" y="-273.8" font-family="Helvetica,sans-Serif" font-size="14.00">squared_error = 0.42</text>
<text text-anchor="start" x="290" y="-258.8" font-family="Helvetica,sans-Serif" font-size="14.00">samples = 360847</text>
<text text-anchor="start" x="306.5" y="-243.8" font-family="Helvetica,sans-Serif" font-size="14.00">value = 10.21</text>
</g>
<!-- 0&#45;&gt;1 -->
<g id="edge1" class="edge">
<title>0&#45;&gt;1</title>
<path fill="none" stroke="black" d="M488.04,-355.82C465.82,-341.49 439.68,-324.64 416.58,-309.74"/>
<polygon fill="black" stroke="black" points="418.19,-306.62 407.89,-304.14 414.4,-312.5 418.19,-306.62"/>
<text text-anchor="middle" x="413.17" y="-324.88" font-family="Helvetica,sans-Serif" font-size="14.00">True</text>
</g>
<!-- 2 -->
<g id="node7" class="node">
<title>2</title>
<path fill="#ffffff" stroke="black" d="M702,-57.5C702,-57.5 561,-57.5 561,-57.5 555,-57.5 549,-51.5 549,-45.5 549,-45.5 549,-16.5 549,-16.5 549,-10.5 555,-4.5 561,-4.5 561,-4.5 702,-4.5 702,-4.5 708,-4.5 714,-10.5 714,-16.5 714,-16.5 714,-45.5 714,-45.5 714,-51.5 708,-57.5 702,-57.5"/>
<text text-anchor="start" x="557" y="-42.3" font-family="Helvetica,sans-Serif" font-size="14.00">squared_error = 0.12</text>
<text text-anchor="start" x="569.5" y="-27.3" font-family="Helvetica,sans-Serif" font-size="14.00">samples = 43863</text>
<text text-anchor="start" x="586" y="-12.3" font-family="Helvetica,sans-Serif" font-size="14.00">value = 9.21</text>
</g>
<!-- 0&#45;&gt;2 -->
<g id="edge6" class="edge">
<title>0&#45;&gt;2</title>
<path fill="none" stroke="black" d="M548.07,-355.73C565.38,-288.56 604.38,-137.23 622.25,-67.91"/>
<polygon fill="black" stroke="black" points="625.72,-68.46 624.82,-57.9 618.94,-66.71 625.72,-68.46"/>
<text text-anchor="middle" x="637.53" y="-75.73" font-family="Helvetica,sans-Serif" font-size="14.00">False</text>
</g>
<!-- 3 -->
<g id="node3" class="node">
<title>3</title>
<path fill="#f0b48a" stroke="black" d="M153,-57.5C153,-57.5 12,-57.5 12,-57.5 6,-57.5 0,-51.5 0,-45.5 0,-45.5 0,-16.5 0,-16.5 0,-10.5 6,-4.5 12,-4.5 12,-4.5 153,-4.5 153,-4.5 159,-4.5 165,-10.5 165,-16.5 165,-16.5 165,-45.5 165,-45.5 165,-51.5 159,-57.5 153,-57.5"/>
<text text-anchor="start" x="8" y="-42.3" font-family="Helvetica,sans-Serif" font-size="14.00">squared_error = 0.37</text>
<text text-anchor="start" x="16" y="-27.3" font-family="Helvetica,sans-Serif" font-size="14.00">samples = 155724</text>
<text text-anchor="start" x="37" y="-12.3" font-family="Helvetica,sans-Serif" font-size="14.00">value = 9.97</text>
</g>
<!-- 1&#45;&gt;3 -->
<g id="edge2" class="edge">
<title>1&#45;&gt;3</title>
<path fill="none" stroke="black" d="M318.11,-235.8C265.58,-190.36 171.89,-109.32 119.89,-64.34"/>
<polygon fill="black" stroke="black" points="122.07,-61.6 112.22,-57.7 117.49,-66.89 122.07,-61.6"/>
</g>
<!-- 4 -->
<g id="node4" class="node">
<title>4</title>
<path fill="#e78a48" stroke="black" d="M427,-184C427,-184 286,-184 286,-184 280,-184 274,-178 274,-172 274,-172 274,-128 274,-128 274,-122 280,-116 286,-116 286,-116 427,-116 427,-116 433,-116 439,-122 439,-128 439,-128 439,-172 439,-172 439,-178 433,-184 427,-184"/>
<text text-anchor="start" x="294" y="-168.8" font-family="Helvetica,sans-Serif" font-size="14.00">ProductSize ≤ 4.5</text>
<text text-anchor="start" x="282" y="-153.8" font-family="Helvetica,sans-Serif" font-size="14.00">squared_error = 0.37</text>
<text text-anchor="start" x="290" y="-138.8" font-family="Helvetica,sans-Serif" font-size="14.00">samples = 205123</text>
<text text-anchor="start" x="311" y="-123.8" font-family="Helvetica,sans-Serif" font-size="14.00">value = 10.4</text>
</g>
<!-- 1&#45;&gt;4 -->
<g id="edge3" class="edge">
<title>1&#45;&gt;4</title>
<path fill="none" stroke="black" d="M356.5,-235.82C356.5,-223 356.5,-208.15 356.5,-194.5"/>
<polygon fill="black" stroke="black" points="360,-194.34 356.5,-184.34 353,-194.34 360,-194.34"/>
</g>
<!-- 5 -->
<g id="node5" class="node">
<title>5</title>
<path fill="#e58139" stroke="black" d="M336,-57.5C336,-57.5 195,-57.5 195,-57.5 189,-57.5 183,-51.5 183,-45.5 183,-45.5 183,-16.5 183,-16.5 183,-10.5 189,-4.5 195,-4.5 195,-4.5 336,-4.5 336,-4.5 342,-4.5 348,-10.5 348,-16.5 348,-16.5 348,-45.5 348,-45.5 348,-51.5 342,-57.5 336,-57.5"/>
<text text-anchor="start" x="191" y="-42.3" font-family="Helvetica,sans-Serif" font-size="14.00">squared_error = 0.31</text>
<text text-anchor="start" x="199" y="-27.3" font-family="Helvetica,sans-Serif" font-size="14.00">samples = 182403</text>
<text text-anchor="start" x="220" y="-12.3" font-family="Helvetica,sans-Serif" font-size="14.00">value = 10.5</text>
</g>
<!-- 4&#45;&gt;5 -->
<g id="edge4" class="edge">
<title>4&#45;&gt;5</title>
<path fill="none" stroke="black" d="M330.67,-115.79C318.5,-100.14 304,-81.5 291.77,-65.78"/>
<polygon fill="black" stroke="black" points="294.51,-63.6 285.61,-57.86 288.99,-67.9 294.51,-63.6"/>
</g>
<!-- 6 -->
<g id="node6" class="node">
<title>6</title>
<path fill="#f7d6bf" stroke="black" d="M519,-57.5C519,-57.5 378,-57.5 378,-57.5 372,-57.5 366,-51.5 366,-45.5 366,-45.5 366,-16.5 366,-16.5 366,-10.5 372,-4.5 378,-4.5 378,-4.5 519,-4.5 519,-4.5 525,-4.5 531,-10.5 531,-16.5 531,-16.5 531,-45.5 531,-45.5 531,-51.5 525,-57.5 519,-57.5"/>
<text text-anchor="start" x="374" y="-42.3" font-family="Helvetica,sans-Serif" font-size="14.00">squared_error = 0.17</text>
<text text-anchor="start" x="386.5" y="-27.3" font-family="Helvetica,sans-Serif" font-size="14.00">samples = 22720</text>
<text text-anchor="start" x="403" y="-12.3" font-family="Helvetica,sans-Serif" font-size="14.00">value = 9.62</text>
</g>
<!-- 4&#45;&gt;6 -->
<g id="edge5" class="edge">
<title>4&#45;&gt;6</title>
<path fill="none" stroke="black" d="M382.62,-115.79C394.92,-100.14 409.58,-81.5 421.94,-65.78"/>
<polygon fill="black" stroke="black" points="424.74,-67.88 428.17,-57.86 419.24,-63.55 424.74,-67.88"/>
</g>
</g>
</svg>
